#!OML:ASF I:\Random Stuff\random\construction\7_22_03\Session 2\subj1.ASF
:FULLY-SPECIFIED
:DEGREES
804
root -9.10252 17.7094 -5.34651 -493.462 74.7572 -507.462
lowerback 13.0944 1.88567 -6.68452
upperback 6.40952 2.26747 -7.28698
thorax -0.47695 1.38046 -4.20331
lowerneck -20.2506 -2.1591 -0.890509
upperneck 30.7502 -3.60716 4.52117
head 13.9884 -0.793681 1.38333
rclavicle -2.70347e-014 -6.36111e-015
rhumerus 30.7831 67.248 -15.6533
rradius 83.1846
rwrist 22.5367
rhand -20.5768 11.1417
rfingers 7.12502
rthumb 5.78291 -18.7594
lclavicle -2.70347e-014 -6.36111e-015
lhumerus 20.3633 -60.4388 75.6721
lradius 35.026
lwrist -8.1605
lhand -26.8836 55.417
lfingers 7.12502
lthumb -0.3077 85.3965
rfemur -9.30621 -5.31507 22.1225
rtibia 2.14687e-014
rfoot -1.05321 -9.5491
rtoes -22.1586
lfemur -32.0945 -5.51641 -5.14276
ltibia 32.0623
lfoot -13.3924 2.38133
ltoes -31.9
805
root -9.10645 17.707 -5.34681 -493.792 74.6676 -507.699
lowerback 13.2651 1.87499 -6.6237
upperback 6.42705 2.24512 -7.27195
thorax -0.549709 1.37255 -4.22614
lowerneck -20.2111 -2.19537 -0.916576
upperneck 30.7542 -3.65344 4.53558
head 13.9842 -0.814565 1.38569
rclavicle 9.54166e-015 4.77083e-014
rhumerus 30.4967 67.2268 -15.9174
rradius 83.1615
rwrist 22.5545
rhand -20.482 11.1895
rfingers 7.12502
rthumb 5.8745 -18.7091
lclavicle 9.54166e-015 4.77083e-014
lhumerus 20.3654 -60.4812 75.7384
lradius 34.9747
lwrist -8.12461
lhand -27.0638 55.335
lfingers 7.12502
lthumb -0.481739 85.3142
rfemur -9.19774 -5.42944 22.1157
rtibia 8.74653e-015
rfoot -1.06092 -9.54218
rtoes -22.1922
lfemur -32.0542 -5.65167 -5.13939
ltibia 32.0755
lfoot -13.3896 2.37179
ltoes -31.945
806
root -9.10476 17.7073 -5.34579 -493.587 74.7375 -507.524
lowerback 13.1301 1.9129 -6.65584
upperback 6.43551 2.30694 -7.27002
thorax -0.467452 1.40089 -4.20769
lowerneck -20.2232 -2.23253 -0.944236
upperneck 30.7779 -3.69624 4.5297
head 13.9992 -0.836441 1.38088
rclavicle 4.77083e-014 -8.90555e-014
rhumerus 30.326 67.1781 -16.108
rradius 83.1153
rwrist 22.4088
rhand -20.8731 11.1924
rfingers 7.12502
rthumb 5.49691 -18.7163
lclavicle 4.77083e-014 -8.90555e-014
lhumerus 20.4708 -60.5526 75.6599
lradius 34.968
lwrist -8.02215
lhand -27.0966 55.5084
lfingers 7.12502
lthumb -0.513436 85.4875
rfemur -9.26143 -5.34467 22.1059
rtibia -1.03368e-014
rfoot -1.02313 -9.54385
rtoes -22.2254
lfemur -32.0669 -5.47765 -5.1689
ltibia 32.0848
lfoot -13.4103 2.26113
ltoes -32.0013
807
root -9.10608 17.7076 -5.34537 -493.645 74.7495 -507.563
lowerback 13.1314 1.90641 -6.65737
upperback 6.44636 2.30083 -7.28211
thorax -0.456098 1.39858 -4.21875
lowerneck -20.2216 -2.22718 -0.937487
upperneck 30.7943 -3.68655 4.51882
head 14.0052 -0.832457 1.37743
rclavicle -5.24792e-014 -1.08139e-013
rhumerus 30.2285 67.1237 -16.2877
rradius 83.0832
rwrist 22.0255
rhand -20.5299 10.7816
rfingers 7.12502
rthumb 5.82821 -19.1183
lclavicle -5.24792e-014 -1.08139e-013
lhumerus 20.4801 -60.541 75.6307
lradius 34.9867
lwrist -8.06315
lhand -26.9516 55.741
lfingers 7.12502
lthumb -0.373298 85.7204
rfemur -9.25716 -5.34283 22.0928
rtibia -2.38542e-014
rfoot -0.995201 -9.54213
rtoes -22.524
lfemur -32.0489 -5.48976 -5.18442
ltibia 32.081
lfoot -13.3939 2.27851
ltoes -32.0158
808
root -9.10994 17.7076 -5.34609 -493.84 74.6864 -507.705
lowerback 13.262 1.87885 -6.59373
upperback 6.44997 2.25878 -7.28648
thorax -0.52166 1.38088 -4.25962
lowerneck -20.24 -2.21561 -0.93003
upperneck 30.8465 -3.66814 4.5104
head 14.0309 -0.82272 1.37719
rclavicle -8.42847e-014 3.18055e-014
rhumerus 30.0108 67.0693 -16.5646
rradius 83.0866
rwrist 21.4219
rhand -19.2211 10.4172
rfingers 7.12502
rthumb 7.0917 -19.444
lclavicle -8.42847e-014 3.18055e-014
lhumerus 20.4593 -60.5227 75.6658
lradius 34.9704
lwrist -8.12096
lhand -26.8419 55.8165
lfingers 7.12502
lthumb -0.267343 85.7961
rfemur -9.18948 -5.41359 22.1113
rtibia -3.26007e-014
rfoot -0.98883 -9.5387
rtoes -22.8812
lfemur -32.0143 -5.67041 -5.15199
ltibia 32.0669
lfoot -13.3703 2.3845
ltoes -32.0527
809
root -9.1073 17.7087 -5.34594 -493.562 74.7585 -507.494
lowerback 13.1141 1.91212 -6.6014
upperback 6.43755 2.31547 -7.30495
thorax -0.453171 1.40749 -4.27584
lowerneck -20.2883 -2.23242 -0.897909
upperneck 30.9173 -3.69383 4.47875
head 14.072 -0.831651 1.35563
rclavicle -4.77083e-014 1.90833e-014
rhumerus 29.7422 67.0115 -16.8704
rradius 83.0873
rwrist 20.6812
rhand -18.9938 10.0902
rfingers 7.12502
rthumb 7.31115 -19.7634
lclavicle -4.77083e-014 1.90833e-014
lhumerus 20.4932 -60.5084 75.6944
lradius 34.8904
lwrist -8.21293
lhand -26.7972 55.8496
lfingers 7.12502
lthumb -0.224227 85.8292
rfemur -9.27744 -5.31838 22.1117
rtibia 4.77083e-015
rfoot -0.972175 -9.51245
rtoes -22.8178
lfemur -32.0409 -5.60568 -5.14196
ltibia 32.0576
lfoot -13.3913 2.41809
ltoes -31.9878
810
root -9.10611 17.7087 -5.34528 -493.536 74.7947 -507.489
lowerback 13.056 1.93051 -6.6059
upperback 6.43876 2.34686 -7.32737
thorax -0.418637 1.42336 -4.29868
lowerneck -20.3313 -2.25583 -0.86947
upperneck 30.9497 -3.73162 4.45458
head 14.0957 -0.846619 1.33464
rclavicle 2.38542e-014 9.54166e-015
rhumerus 29.4817 66.9339 -17.178
rradius 83.0238
rwrist 19.8079
rhand -19.1665 9.62327
rfingers 7.12502
rthumb 7.14443 -20.2361
lclavicle 2.38542e-014 9.54166e-015
lhumerus 20.524 -60.5066 75.7001
lradius 34.8384
lwrist -8.31513
lhand -26.7161 55.8729
lfingers 7.12502
lthumb -0.145889 85.8526
rfemur -9.28624 -5.29368 22.0763
rtibia -4.77083e-015
rfoot -1.05186 -9.49545
rtoes -22.2327
lfemur -32.0526 -5.58311 -5.16244
ltibia 32.0607
lfoot -13.4002 2.43245
ltoes -31.811
811
root -9.10849 17.7079 -5.34664 -493.564 74.7487 -507.5
lowerback 13.1053 1.91941 -6.52687
upperback 6.44015 2.33554 -7.32689
thorax -0.442007 1.41977 -4.34323
lowerneck -20.3732 -2.27363 -0.943475
upperneck 30.9527 -3.75703 4.5267
head 14.1109 -0.855733 1.37194
rclavicle -9.54166e-015 -3.81667e-014
rhumerus 29.2872 66.8254 -17.4079
rradius 82.9271
rwrist 18.9229
rhand -19.2454 9.11337
rfingers 7.12502
rthumb 7.06826 -20.7486
lclavicle -9.54166e-015 -3.81667e-014
lhumerus 20.5296 -60.5263 75.6991
lradius 34.8355
lwrist -8.29443
lhand -26.7274 55.7619
lfingers 7.12502
lthumb -0.156839 85.7416
rfemur -9.26966 -5.32796 22.1033
rtibia 1.11319e-014
rfoot -1.07212 -9.50873
rtoes -22.3352
lfemur -32.057 -5.6333 -5.132
ltibia 32.0584
lfoot -13.376 2.46814
ltoes -31.8829
812
root -9.11382 17.7055 -5.34795 -493.821 74.6634 -507.691
lowerback 13.2763 1.88767 -6.44682
upperback 6.4399 2.28471 -7.32404
thorax -0.533683 1.3981 -4.38662
lowerneck -20.3952 -2.28493 -1.05367
upperneck 30.9611 -3.77554 4.65079
head 14.1263 -0.858412 1.43815
rclavicle 0 -3.81667e-014
rhumerus 29.134 66.7187 -17.5914
rradius 82.8414
rwrist 18.1689
rhand -19.1928 8.95647
rfingers 7.12502
rthumb 7.11907 -20.9038
lclavicle 0 -3.81667e-014
lhumerus 20.5309 -60.5625 75.6945
lradius 34.8118
lwrist -8.21009
lhand -26.8962 55.5137
lfingers 7.12502
lthumb -0.31983 85.4932
rfemur -9.21749 -5.4271 22.1155
rtibia 2.22639e-014
rfoot -1.0107 -9.51285
rtoes -22.7263
lfemur -32.0348 -5.78208 -5.11117
ltibia 32.05
lfoot -13.3301 2.52347
ltoes -31.9244
813
root -9.11275 17.7085 -5.34806 -493.606 74.7472 -507.553
lowerback 13.1339 1.91419 -6.49234
upperback 6.41179 2.32457 -7.33634
thorax -0.48657 1.41525 -4.37337
lowerneck -20.3885 -2.27493 -1.0892
upperneck 30.9538 -3.76692 4.70897
head 14.1237 -0.850639 1.46939
rclavicle -2.06736e-014 6.99722e-014
rhumerus 29.0469 66.6384 -17.7168
rradius 82.7631
rwrist 17.5147
rhand -19.0362 9.03625
rfingers 7.12502
rthumb 7.27024 -20.8189
lclavicle -2.06736e-014 6.99722e-014
lhumerus 20.5429 -60.594 75.6696
lradius 34.8215
lwrist -8.15881
lhand -26.9238 55.4877
lfingers 7.12502
lthumb -0.346495 85.4671
rfemur -9.30412 -5.33588 22.101
rtibia 4.77083e-015
rfoot -0.972308 -9.51869
rtoes -22.7218
lfemur -32.0738 -5.66387 -5.14116
ltibia 32.0325
lfoot -13.3353 2.50695
ltoes -31.8086
814
root -9.11312 17.7096 -5.34787 -493.65 74.8091 -507.61
lowerback 13.0913 1.9216 -6.5753
upperback 6.40299 2.32872 -7.34076
thorax -0.474863 1.4154 -4.33039
lowerneck -20.359 -2.2563 -1.03046
upperneck 30.9239 -3.74198 4.653
head 14.1002 -0.842212 1.44041
rclavicle -6.36111e-014 4.45278e-014
rhumerus 29.0819 66.598 -17.707
rradius 82.7189
rwrist 16.9287
rhand -18.8913 8.85878
rfingers 7.12502
rthumb 7.41007 -20.9914
lclavicle -6.36111e-014 4.45278e-014
lhumerus 20.5073 -60.5741 75.682
lradius 34.8873
lwrist -8.1535
lhand -26.8456 55.7184
lfingers 7.12502
lthumb -0.270974 85.698
rfemur -9.32243 -5.30351 22.0444
rtibia -9.54166e-015
rfoot -0.953833 -9.53356
rtoes -22.7231
lfemur -32.0565 -5.6272 -5.20188
ltibia 32.0026
lfoot -13.3377 2.4912
ltoes -31.9074
